<svg width="235" height="42" viewBox="0 0 235 42" fill="none" xmlns="http://www.w3.org/2000/svg">
<path fill-rule="evenodd" clip-rule="evenodd" d="M8 0C3.58172 0 0 3.58172 0 8V34C0 38.4183 3.58172 42 8 42H34C38.4183 42 42 38.4183 42 34V8C42 3.58172 38.4183 0 34 0H8ZM15.3999 10.1626C14.1931 10.1626 13.2147 11.1409 13.2147 12.3478C13.2147 13.5547 14.1931 14.533 15.3999 14.533H23.0482C24.2551 14.533 25.2334 13.5547 25.2334 12.3478C25.2334 11.1409 24.2551 10.1626 23.0482 10.1626H15.3999ZM13.2162 29.831C13.2162 28.6241 14.1946 27.6458 15.4015 27.6458C16.6083 27.6458 17.5867 28.6241 17.5867 29.831C17.5867 31.0379 16.6083 32.0162 15.4015 32.0162C14.1946 32.0162 13.2162 31.0379 13.2162 29.831ZM19.2246 18.9042C18.0177 18.9042 17.0394 19.8825 17.0394 21.0894C17.0394 22.2963 18.0177 23.2746 19.2246 23.2746H26.8729C28.0798 23.2746 29.0581 22.2963 29.0581 21.0894C29.0581 19.8825 28.0798 18.9042 26.8729 18.9042H19.2246Z" fill="#19807D"/>
<path d="M55.8716 31.3889H59.612V23.3581H66.3226V19.6177H59.612V15.3272H67.9728V11.5869H55.8716V31.3889Z" fill="#19807D"/>
<path d="M70.7306 14.4747H74.471V11.1743H70.7306V14.4747ZM70.7306 31.3889H74.471V16.5374H70.7306V31.3889Z" fill="#19807D"/>
<path d="M84.6167 31.8014C85.3135 31.8014 85.9552 31.7189 86.5419 31.5539C87.1378 31.3889 87.6787 31.1551 88.1646 30.8526V32.3515C88.1829 32.9015 88.0408 33.3599 87.7383 33.7266C87.4449 34.1025 87.0507 34.3821 86.5557 34.5654C86.0606 34.758 85.5335 34.8542 84.9743 34.8542C84.4517 34.8542 83.9658 34.7396 83.5166 34.5104C83.0766 34.2812 82.7374 33.9466 82.499 33.5066L79.0337 35.1843C79.6021 36.1468 80.4134 36.9215 81.4677 37.5082C82.5219 38.1041 83.6816 38.4021 84.9468 38.4021C86.0377 38.4021 87.0507 38.2554 87.9858 37.962C88.9209 37.6778 89.7093 37.2424 90.3511 36.6557C91.002 36.0689 91.4466 35.3218 91.6849 34.4142C91.7675 34.0933 91.8225 33.7679 91.85 33.4378C91.8866 33.117 91.905 32.7732 91.905 32.4065V16.5374H88.6321V17.3624C88.1279 16.9682 87.5549 16.6657 86.9132 16.4549C86.2806 16.2348 85.5793 16.1248 84.8092 16.1248C83.3883 16.1248 82.1506 16.464 81.0964 17.1424C80.0421 17.8208 79.2216 18.7513 78.6349 19.934C78.0573 21.1074 77.7685 22.4505 77.7685 23.9631C77.7685 25.4483 78.0527 26.7821 78.6211 27.9648C79.1987 29.1474 80.0008 30.0825 81.0276 30.7701C82.0544 31.4576 83.2508 31.8014 84.6167 31.8014ZM85.2218 28.4736C84.415 28.4736 83.755 28.2719 83.2416 27.8685C82.7282 27.4651 82.3477 26.9242 82.1002 26.2458C81.8527 25.5583 81.7289 24.7974 81.7289 23.9631C81.7289 23.138 81.8573 22.3863 82.114 21.7079C82.3707 21.0203 82.7649 20.4748 83.2966 20.0715C83.8375 19.6589 84.525 19.4527 85.3593 19.4527C86.5328 19.4527 87.3716 19.8698 87.8758 20.704C88.38 21.5291 88.6321 22.6155 88.6321 23.9631C88.6321 25.3108 88.3754 26.4017 87.8621 27.2359C87.3578 28.061 86.4777 28.4736 85.2218 28.4736Z" fill="#19807D"/>
<path d="M102.439 31.8014C103.924 31.8014 105.231 31.4714 106.358 30.8113C107.495 30.1421 108.38 29.2207 109.012 28.0473C109.654 26.8647 109.975 25.5033 109.975 23.9631C109.975 22.4321 109.659 21.0799 109.026 19.9065C108.394 18.7238 107.509 17.7979 106.372 17.1287C105.244 16.4594 103.933 16.1248 102.439 16.1248C100.972 16.1248 99.6751 16.4549 98.5475 17.1149C97.4199 17.775 96.5352 18.6963 95.8935 19.8789C95.2518 21.0524 94.9309 22.4138 94.9309 23.9631C94.9309 25.4941 95.2426 26.8509 95.866 28.0335C96.4986 29.207 97.3787 30.1283 98.5063 30.7976C99.6339 31.4668 100.945 31.8014 102.439 31.8014ZM102.439 28.3086C101.275 28.3086 100.39 27.9189 99.7852 27.1397C99.1893 26.3513 98.8913 25.2924 98.8913 23.9631C98.8913 22.6705 99.1755 21.6254 99.7439 20.8278C100.321 20.021 101.22 19.6177 102.439 19.6177C103.622 19.6177 104.511 20.0119 105.107 20.8003C105.712 21.5887 106.015 22.643 106.015 23.9631C106.015 25.2374 105.717 26.2825 105.121 27.0984C104.534 27.9052 103.64 28.3086 102.439 28.3086Z" fill="#19807D"/>
<path d="M118.505 31.3889H122.245V24.6782H126.866C127.049 24.6782 127.306 24.669 127.636 24.6507C127.966 24.6323 128.259 24.6048 128.516 24.5682C130.276 24.2931 131.569 23.5689 132.394 22.3955C133.219 21.2128 133.631 19.7919 133.631 18.1325C133.631 16.464 133.223 15.043 132.408 13.8696C131.592 12.6961 130.294 11.9719 128.516 11.6969C128.259 11.651 127.966 11.6235 127.636 11.6144C127.315 11.596 127.058 11.5869 126.866 11.5869H118.505V31.3889ZM122.245 21.1853V15.0797H126.701C126.893 15.0797 127.104 15.0889 127.333 15.1072C127.562 15.1256 127.773 15.1622 127.966 15.2172C128.47 15.3547 128.86 15.5885 129.135 15.9185C129.41 16.2394 129.598 16.6015 129.699 17.0049C129.809 17.3991 129.864 17.775 129.864 18.1325C129.864 18.4901 129.809 18.8705 129.699 19.2739C129.598 19.6681 129.41 20.0302 129.135 20.3602C128.86 20.6811 128.47 20.9103 127.966 21.0478C127.773 21.1028 127.562 21.1395 127.333 21.1578C127.104 21.1762 126.893 21.1853 126.701 21.1853H122.245Z" fill="#19807D"/>
<path d="M140.249 31.8014C141.395 31.8014 142.358 31.6272 143.137 31.2789C143.925 30.9213 144.65 30.3529 145.31 29.5737V31.3889H148.583V22.3129C148.583 21.6345 148.555 21.0203 148.5 20.4703C148.445 19.9202 148.271 19.3701 147.978 18.8201C147.455 17.83 146.685 17.1333 145.667 16.7299C144.65 16.3265 143.485 16.1248 142.174 16.1248C140.387 16.1248 138.975 16.5099 137.939 17.2799C136.903 18.05 136.197 19.0493 135.821 20.2777L139.204 21.3503C139.443 20.6719 139.86 20.1998 140.456 19.934C141.051 19.6681 141.624 19.5352 142.174 19.5352C143.055 19.5352 143.71 19.7002 144.141 20.0302C144.572 20.3511 144.824 20.8599 144.897 21.5566C143.504 21.7583 142.275 21.9554 141.212 22.1479C140.148 22.3313 139.259 22.5513 138.544 22.808C137.352 23.248 136.513 23.8485 136.028 24.6094C135.542 25.3612 135.299 26.255 135.299 27.291C135.299 28.116 135.487 28.8724 135.863 29.5599C136.248 30.2383 136.807 30.7838 137.54 31.1963C138.283 31.5997 139.186 31.8014 140.249 31.8014ZM141.047 28.8586C140.405 28.8586 139.896 28.7165 139.52 28.4323C139.145 28.139 138.957 27.7402 138.957 27.2359C138.957 26.8601 139.076 26.5392 139.314 26.2733C139.553 25.9983 139.947 25.7508 140.497 25.5308C140.919 25.3749 141.436 25.2328 142.051 25.1045C142.674 24.967 143.614 24.7928 144.87 24.5819C144.861 24.9395 144.833 25.3337 144.787 25.7645C144.741 26.1863 144.641 26.5575 144.485 26.8784C144.384 27.0893 144.191 27.3505 143.907 27.6622C143.632 27.9739 143.256 28.2535 142.78 28.5011C142.312 28.7394 141.734 28.8586 141.047 28.8586Z" fill="#19807D"/>
<path d="M153.223 37.9895H156.689L165.077 16.5374H161.337L157.459 26.6446L153.553 16.5374H149.675L155.671 31.2651L153.223 37.9895Z" fill="#19807D"/>
<path d="M166.983 31.3889H170.751V22.3955C170.751 21.5429 170.985 20.8507 171.452 20.319C171.929 19.7781 172.557 19.5077 173.336 19.5077C174.152 19.5077 174.789 19.7827 175.248 20.3327C175.715 20.8736 175.949 21.6345 175.949 22.6155V31.3889H179.69V22.3955C179.69 21.5429 179.923 20.8507 180.391 20.319C180.868 19.7781 181.496 19.5077 182.275 19.5077C183.091 19.5077 183.728 19.7827 184.186 20.3327C184.654 20.8736 184.888 21.6345 184.888 22.6155V31.3889H188.628V21.6254C188.628 20.0027 188.193 18.6917 187.322 17.6925C186.46 16.684 185.181 16.1798 183.485 16.1798C182.532 16.1798 181.656 16.3861 180.858 16.7986C180.061 17.2112 179.424 17.775 178.947 18.4901C178.562 17.7933 178.012 17.2341 177.297 16.8124C176.582 16.3907 175.693 16.1798 174.629 16.1798C173.731 16.1798 172.906 16.3586 172.154 16.7161C171.402 17.0645 170.779 17.5458 170.284 18.16V16.5374H166.983V31.3889Z" fill="#19807D"/>
<path d="M198.838 31.8014C200.269 31.8014 201.584 31.4255 202.785 30.6738C203.995 29.922 204.88 28.8678 205.439 27.511L201.699 26.4384C201.13 27.6852 200.104 28.3086 198.618 28.3086C197.601 28.3086 196.799 28.0244 196.212 27.456C195.634 26.8876 195.277 26.0717 195.139 25.0082H205.563C205.719 23.2114 205.535 21.6483 205.013 20.319C204.49 18.9897 203.683 17.9583 202.593 17.2249C201.502 16.4915 200.177 16.1248 198.618 16.1248C197.152 16.1248 195.854 16.4594 194.727 17.1287C193.599 17.7887 192.714 18.7192 192.073 19.9202C191.431 21.1212 191.11 22.533 191.11 24.1556C191.11 25.6408 191.436 26.9609 192.086 28.116C192.747 29.262 193.654 30.165 194.809 30.8251C195.974 31.476 197.317 31.8014 198.838 31.8014ZM198.783 19.3701C199.682 19.3701 200.369 19.5948 200.846 20.044C201.332 20.4932 201.644 21.222 201.781 22.2304H195.236C195.63 20.3236 196.812 19.3701 198.783 19.3701Z" fill="#19807D"/>
<path d="M208.237 31.3889H212.033V23.8531C212.033 22.9272 212.134 22.1846 212.335 21.6254C212.546 21.0662 212.812 20.6444 213.133 20.3602C213.454 20.0669 213.798 19.8698 214.164 19.7689C214.531 19.6681 214.875 19.6177 215.196 19.6177C215.993 19.6177 216.608 19.7964 217.038 20.154C217.478 20.5115 217.795 20.9561 217.987 21.4879C218.18 22.0196 218.294 22.5513 218.331 23.083C218.368 23.6056 218.386 24.0365 218.386 24.3757V31.3889H222.181V23.0555C222.181 22.808 222.163 22.4138 222.126 21.8729C222.09 21.332 221.984 20.7361 221.81 20.0852C221.636 19.4252 221.343 18.7926 220.93 18.1875C220.527 17.5825 219.958 17.0828 219.225 16.6886C218.491 16.2944 217.543 16.0973 216.378 16.0973C215.306 16.0973 214.371 16.2761 213.573 16.6336C212.775 16.9912 212.106 17.4679 211.565 18.0638V16.5374H208.237V31.3889Z" fill="#19807D"/>
<path d="M234.661 31.3889V28.2811C233.78 28.4002 232.978 28.4369 232.254 28.3911C231.53 28.3452 231.003 28.061 230.673 27.5385C230.498 27.2634 230.402 26.8967 230.384 26.4384C230.375 25.9708 230.37 25.4483 230.37 24.8707V19.4252H234.661V16.5374H230.37V12.4119H226.63V16.5374H224.1V19.4252H226.63V25.0907C226.63 25.98 226.639 26.7776 226.657 27.4835C226.676 28.1802 226.868 28.8678 227.235 29.5462C227.638 30.2704 228.225 30.7976 228.995 31.1276C229.774 31.4485 230.654 31.6181 231.635 31.6364C232.625 31.6639 233.634 31.5814 234.661 31.3889Z" fill="#19807D"/>
</svg>
